%
M48
M72
T01C0.0197
T02C0.0394
%
T01
X1692Y3608
X1714Y4232
X1017Y4883
X1017Y5933
X1017Y6858
X2217Y7183
X1017Y8183
X1542Y8908
X2942Y8658
X3992Y8058
X4592Y7283
X4867Y6133
X4817Y4983
X3992Y4633
X2932Y4983
X2767Y5858
X5617Y3983
X4917Y3108
X3842Y2858
T02
X1467Y2133
X2467Y2133
X3467Y2133
X4467Y2133
X5467Y2133
M30
