G75*
%MOIN*%
%OFA0B0*%
%FSLAX24Y24*%
%IPPOS*%
%LPD*%
%AMOC8*
5,1,8,0,0,1.08239X$1,22.5*
%
%ADD10C,0.0000*%
%ADD11C,0.0591*%
%ADD12C,0.0240*%
%ADD13C,0.0337*%
D10*
X000667Y001133D02*
X000667Y009328D01*
X006084Y009328D01*
X006084Y001133D01*
X000667Y001133D01*
D11*
X001467Y001838D02*
X001467Y002429D01*
X002467Y002429D02*
X002467Y001838D01*
X003467Y001838D02*
X003467Y002429D01*
X004467Y002429D02*
X004467Y001838D01*
X005467Y001838D02*
X005467Y002429D01*
D12*
X005814Y002433D02*
X004942Y002433D01*
X004942Y002523D01*
X004870Y002698D01*
X004767Y002801D01*
X004767Y004993D01*
X004721Y005103D01*
X002560Y007264D01*
X002512Y007381D01*
X002414Y007479D01*
X002286Y007532D01*
X002147Y007532D01*
X002019Y007479D01*
X001921Y007381D01*
X001868Y007253D01*
X001868Y007114D01*
X001921Y006986D01*
X002019Y006888D01*
X002136Y006840D01*
X004167Y004809D01*
X004167Y002801D01*
X004064Y002698D01*
X003991Y002523D01*
X003991Y002433D01*
X002942Y002433D01*
X002942Y002523D01*
X002870Y002698D01*
X002736Y002832D01*
X002561Y002904D01*
X002372Y002904D01*
X002197Y002832D01*
X002064Y002698D01*
X001991Y002523D01*
X001991Y002433D01*
X001942Y002433D01*
X001942Y002523D01*
X001870Y002698D01*
X001863Y002705D01*
X003186Y004029D01*
X003232Y004139D01*
X003232Y004797D01*
X003280Y004914D01*
X003280Y005053D01*
X003227Y005181D01*
X003129Y005279D01*
X003001Y005332D01*
X002863Y005332D01*
X002735Y005279D01*
X002637Y005181D01*
X002584Y005053D01*
X002584Y004914D01*
X002632Y004797D01*
X002632Y004323D01*
X001212Y002903D01*
X001172Y002806D01*
X001064Y002698D01*
X000991Y002523D01*
X000991Y002433D01*
X000937Y002433D01*
X000937Y009058D01*
X005814Y009058D01*
X005814Y002433D01*
X005814Y002564D02*
X004925Y002564D01*
X004767Y002803D02*
X005814Y002803D01*
X005814Y003041D02*
X004767Y003041D01*
X004767Y003280D02*
X005814Y003280D01*
X005814Y003518D02*
X004767Y003518D01*
X004767Y003757D02*
X005814Y003757D01*
X005814Y003995D02*
X004767Y003995D01*
X004767Y004234D02*
X005814Y004234D01*
X005814Y004472D02*
X004767Y004472D01*
X004767Y004711D02*
X005814Y004711D01*
X005814Y004949D02*
X004767Y004949D01*
X004636Y005188D02*
X005814Y005188D01*
X005814Y005426D02*
X004398Y005426D01*
X004159Y005665D02*
X005814Y005665D01*
X005814Y005903D02*
X003921Y005903D01*
X003682Y006142D02*
X005814Y006142D01*
X005814Y006380D02*
X003444Y006380D01*
X003205Y006619D02*
X005814Y006619D01*
X005814Y006857D02*
X002967Y006857D01*
X003072Y007029D02*
X003182Y006983D01*
X004405Y006983D01*
X004522Y006935D01*
X004661Y006935D01*
X004789Y006988D01*
X004887Y007086D01*
X004940Y007214D01*
X004940Y007353D01*
X004887Y007481D01*
X004789Y007579D01*
X004661Y007632D01*
X004522Y007632D01*
X004405Y007583D01*
X004292Y007583D01*
X004292Y007872D01*
X004340Y007989D01*
X004340Y008128D01*
X004287Y008256D01*
X004189Y008354D01*
X004061Y008407D01*
X003922Y008407D01*
X003794Y008354D01*
X003696Y008256D01*
X003643Y008128D01*
X003643Y007989D01*
X003692Y007872D01*
X003692Y007583D01*
X003366Y007583D01*
X002871Y008078D01*
X002787Y008163D01*
X002676Y008208D01*
X002020Y008208D01*
X001964Y008210D01*
X001960Y008208D01*
X001957Y008208D01*
X001905Y008187D01*
X001852Y008166D01*
X001850Y008164D01*
X001847Y008163D01*
X001807Y008123D01*
X001275Y007614D01*
X001272Y007613D01*
X001232Y007573D01*
X000937Y007573D01*
X000937Y007811D02*
X001481Y007811D01*
X001232Y007573D02*
X001191Y007534D01*
X001190Y007531D01*
X001187Y007528D01*
X001166Y007476D01*
X001143Y007425D01*
X001143Y007421D01*
X001142Y007418D01*
X001142Y007362D01*
X001140Y007305D01*
X001142Y007302D01*
X001142Y004444D01*
X001187Y004334D01*
X001370Y004151D01*
X001418Y004035D01*
X001516Y003937D01*
X001644Y003884D01*
X001783Y003884D01*
X001911Y003937D01*
X002009Y004035D01*
X002062Y004163D01*
X002062Y004301D01*
X002009Y004429D01*
X001911Y004527D01*
X001794Y004576D01*
X001742Y004628D01*
X001742Y007230D01*
X002137Y007608D01*
X002492Y007608D01*
X003072Y007029D01*
X003005Y007096D02*
X002728Y007096D01*
X002766Y007334D02*
X002531Y007334D01*
X002217Y007183D02*
X004467Y004933D01*
X004467Y002133D01*
X004008Y002564D02*
X002925Y002564D01*
X002765Y002803D02*
X004167Y002803D01*
X004167Y003041D02*
X002199Y003041D01*
X002169Y002803D02*
X001960Y002803D01*
X001925Y002564D02*
X002008Y002564D01*
X001467Y002733D02*
X001467Y002133D01*
X001008Y002564D02*
X000937Y002564D01*
X000937Y002803D02*
X001169Y002803D01*
X001350Y003041D02*
X000937Y003041D01*
X000937Y003280D02*
X001589Y003280D01*
X001827Y003518D02*
X000937Y003518D01*
X000937Y003757D02*
X002066Y003757D01*
X001970Y003995D02*
X002304Y003995D01*
X002543Y004234D02*
X002062Y004234D01*
X001966Y004472D02*
X002632Y004472D01*
X002632Y004711D02*
X001742Y004711D01*
X001742Y004949D02*
X002584Y004949D01*
X002644Y005188D02*
X001742Y005188D01*
X001742Y005426D02*
X003549Y005426D01*
X003311Y005665D02*
X001742Y005665D01*
X001742Y005903D02*
X003072Y005903D01*
X002834Y006142D02*
X001742Y006142D01*
X001742Y006380D02*
X002595Y006380D01*
X002357Y006619D02*
X001742Y006619D01*
X001742Y006857D02*
X002093Y006857D01*
X001876Y007096D02*
X001742Y007096D01*
X001851Y007334D02*
X001902Y007334D01*
X002100Y007573D02*
X002528Y007573D01*
X002617Y007908D02*
X002017Y007908D01*
X001442Y007358D01*
X001442Y004504D01*
X001714Y004232D01*
X001457Y003995D02*
X000937Y003995D01*
X000937Y004234D02*
X001287Y004234D01*
X001142Y004472D02*
X000937Y004472D01*
X000937Y004711D02*
X001142Y004711D01*
X001142Y004949D02*
X000937Y004949D01*
X000937Y005188D02*
X001142Y005188D01*
X001142Y005426D02*
X000937Y005426D01*
X000937Y005665D02*
X001142Y005665D01*
X001142Y005903D02*
X000937Y005903D01*
X000937Y006142D02*
X001142Y006142D01*
X001142Y006380D02*
X000937Y006380D01*
X000937Y006619D02*
X001142Y006619D01*
X001142Y006857D02*
X000937Y006857D01*
X000937Y007096D02*
X001142Y007096D01*
X001141Y007334D02*
X000937Y007334D01*
X000937Y008050D02*
X001731Y008050D01*
X000937Y008288D02*
X003729Y008288D01*
X003643Y008050D02*
X002899Y008050D01*
X002617Y007908D02*
X003242Y007283D01*
X003992Y007283D01*
X004067Y007283D01*
X004592Y007283D01*
X004940Y007334D02*
X005814Y007334D01*
X005814Y007096D02*
X004891Y007096D01*
X004795Y007573D02*
X005814Y007573D01*
X005814Y007811D02*
X004292Y007811D01*
X004340Y008050D02*
X005814Y008050D01*
X005814Y008288D02*
X004254Y008288D01*
X003992Y008058D02*
X003992Y007283D01*
X003692Y007811D02*
X003138Y007811D01*
X000937Y008527D02*
X005814Y008527D01*
X005814Y008765D02*
X000937Y008765D01*
X000937Y009004D02*
X005814Y009004D01*
X003788Y005188D02*
X003220Y005188D01*
X002932Y004983D02*
X002932Y004199D01*
X001467Y002733D01*
X002437Y003280D02*
X004167Y003280D01*
X004167Y003518D02*
X002676Y003518D01*
X002914Y003757D02*
X004167Y003757D01*
X004167Y003995D02*
X003153Y003995D01*
X003232Y004234D02*
X004167Y004234D01*
X004167Y004472D02*
X003232Y004472D01*
X003232Y004711D02*
X004167Y004711D01*
X004026Y004949D02*
X003280Y004949D01*
D13*
X002932Y004983D03*
X002767Y005858D03*
X003992Y004633D03*
X004817Y004983D03*
X005617Y003983D03*
X004917Y003108D03*
X003842Y002858D03*
X001714Y004232D03*
X001692Y003608D03*
X001017Y004883D03*
X001017Y005933D03*
X001017Y006858D03*
X002217Y007183D03*
X001017Y008183D03*
X001542Y008908D03*
X002942Y008658D03*
X003992Y008058D03*
X004592Y007283D03*
X004867Y006133D03*
M02*
