G75*
%MOIN*%
%OFA0B0*%
%FSLAX24Y24*%
%IPPOS*%
%LPD*%
%AMOC8*
5,1,8,0,0,1.08239X$1,22.5*
%
%ADD10C,0.0000*%
%ADD11C,0.0651*%
%ADD12C,0.0296*%
%ADD13R,0.0454X0.0493*%
%ADD14R,0.0493X0.0454*%
%ADD15R,0.0540X0.0304*%
%ADD16R,0.0651X0.0572*%
%ADD17R,0.0572X0.0651*%
%ADD18R,0.0217X0.0316*%
%ADD19R,0.0277X0.0532*%
%ADD20R,0.0304X0.0540*%
%ADD21C,0.0397*%
D10*
X000667Y001133D02*
X000667Y009328D01*
X006084Y009328D01*
X006084Y001133D01*
X000667Y001133D01*
D11*
X001467Y001838D02*
X001467Y002429D01*
X002467Y002429D02*
X002467Y001838D01*
X003467Y001838D02*
X003467Y002429D01*
X004467Y002429D02*
X004467Y001838D01*
X005467Y001838D02*
X005467Y002429D01*
D12*
X003417Y009033D03*
X002942Y009033D03*
X002492Y009033D03*
D13*
X002676Y008558D03*
X002007Y008558D03*
X003007Y007958D03*
X003676Y007958D03*
X004607Y008583D03*
X005276Y008583D03*
X002217Y006943D03*
X002217Y006274D03*
X004982Y005933D03*
X005651Y005933D03*
D14*
X005651Y006358D03*
X004982Y006358D03*
G36*
X004590Y006456D02*
X004937Y006109D01*
X004616Y005788D01*
X004269Y006135D01*
X004590Y006456D01*
G37*
G36*
X004117Y006929D02*
X004464Y006582D01*
X004143Y006261D01*
X003796Y006608D01*
X004117Y006929D01*
G37*
X003751Y005833D03*
X003082Y005833D03*
X002267Y005743D03*
X001567Y005768D03*
X001567Y006274D03*
X001567Y006943D03*
X001632Y007958D03*
X002301Y007958D03*
X003207Y008558D03*
X003876Y008558D03*
X001567Y005099D03*
X002267Y005074D03*
X002267Y004543D03*
X002267Y003874D03*
X002432Y003108D03*
X003101Y003108D03*
X003067Y003674D03*
X003067Y004343D03*
X001117Y003743D03*
X001117Y003074D03*
D15*
X004555Y003609D03*
X004555Y003983D03*
X004555Y004357D03*
X005578Y004357D03*
X005578Y003609D03*
D16*
X003867Y003474D03*
X003867Y004143D03*
D17*
X003601Y004983D03*
X002932Y004983D03*
X004732Y004983D03*
X005401Y004983D03*
D18*
X001714Y004232D03*
X001320Y004232D03*
X001517Y004685D03*
D19*
X004593Y006947D03*
X004967Y006947D03*
X005341Y006947D03*
X005341Y007970D03*
X004593Y007970D03*
D20*
X003716Y007395D03*
X003342Y007395D03*
X002968Y007395D03*
X002968Y006372D03*
X003342Y006372D03*
X003716Y006372D03*
D21*
X002767Y005858D03*
X002932Y004983D03*
X003992Y004633D03*
X004817Y004983D03*
X005617Y003983D03*
X004917Y003108D03*
X003842Y002858D03*
X001714Y004232D03*
X001692Y003608D03*
X001017Y004883D03*
X001017Y005933D03*
X001017Y006858D03*
X002217Y007183D03*
X001017Y008183D03*
X001542Y008908D03*
X002942Y008658D03*
X003992Y008058D03*
X004592Y007283D03*
X004867Y006133D03*
M02*
